<?xml version="1.0" standalone="no"?>
<!DOCTYPE svg PUBLIC "-//W3C//DTD SVG 20010904//EN"
 "http://www.w3.org/TR/2001/REC-SVG-20010904/DTD/svg10.dtd">
<svg version="1.0" xmlns="http://www.w3.org/2000/svg" width="1920.000000pt" height="234.000000pt" viewBox="0 0 1920.000000 234.000000" preserveAspectRatio="xMidYMid meet">
<metadata>
Created by potrace 1.15, written by Peter Selinger 2001-2017
</metadata>
<g transform="translate(0.000000,234.000000) scale(0.100000,-0.100000)"
fill="#ffffff" stroke="none">
<path d="M7904 2316 c-241 -63 -448 -191 -723 -450 -132 -124 -215 -176 -280
-176 -56 0 -127 39 -240 131 -189 154 -226 181 -301 217 l-75 37 -145 0 c-133
0 -151 -2 -219 -27 -88 -32 -204 -100 -298 -176 -95 -76 -128 -96 -210 -125
-282 -102 -644 -79 -999 63 -149 59 -213 69 -301 46 -99 -25 -169 -66 -375
-221 -265 -199 -351 -242 -538 -270 -174 -27 -338 -13 -524 44 -129 40 -245
43 -321 7 -52 -24 -122 -92 -150 -145 -22 -43 -83 -85 -163 -113 -60 -21 -85
-23 -237 -23 -156 1 -184 4 -347 38 -154 32 -196 37 -311 37 -212 0 -388 -38
-602 -130 -164 -70 -328 -166 -499 -292 l-45 -33 -1 -377 0 -378 9600 0 9600
0 0 525 0 525 -107 108 c-193 194 -371 296 -591 338 -99 19 -336 18 -448 -1
-176 -31 -417 -128 -604 -244 -47 -29 -148 -97 -225 -151 -209 -146 -289 -180
-421 -180 -97 0 -199 31 -474 142 -426 172 -539 208 -775 244 -165 25 -523 25
-725 0 -96 -12 -170 -16 -220 -11 -260 22 -518 144 -670 316 -303 343 -410
404 -705 402 -278 -1 -405 -55 -677 -288 -161 -138 -242 -192 -347 -229 -77
-27 -98 -30 -196 -29 -264 2 -555 137 -992 461 -152 112 -225 153 -342 192
-166 56 -358 52 -540 -11 -47 -17 -185 -79 -306 -140 -326 -162 -424 -189
-568 -155 -130 31 -195 68 -580 335 -122 85 -247 147 -345 172 -112 28 -316
26 -438 -5z"/>
</g>
</svg>
